<svg width="398" height="190" viewBox="0 0 398 190" fill="none" xmlns="http://www.w3.org/2000/svg">
<path d="M287.688 92.375C287.688 95.9583 287.021 99.3125 285.688 102.438C284.354 105.521 282.521 108.229 280.188 110.562C277.896 112.854 275.188 114.667 272.062 116C268.979 117.333 265.667 118 262.125 118H184.25V105.188H262.125C263.917 105.188 265.583 104.854 267.125 104.188C268.667 103.521 270 102.604 271.125 101.438C272.292 100.271 273.208 98.9167 273.875 97.375C274.542 95.7917 274.875 94.125 274.875 92.375C274.875 90.625 274.542 88.9792 273.875 87.4375C273.208 85.8958 272.292 84.5417 271.125 83.375C270 82.2083 268.667 81.2917 267.125 80.625C265.583 79.9583 263.917 79.625 262.125 79.625H209.875C206.375 79.625 203.062 78.9583 199.938 77.625C196.812 76.2917 194.083 74.4792 191.75 72.1875C189.458 69.8542 187.625 67.125 186.25 64C184.917 60.875 184.25 57.5417 184.25 54C184.25 50.5 184.917 47.1875 186.25 44.0625C187.625 40.9375 189.458 38.2292 191.75 35.9375C194.083 33.6042 196.812 31.7708 199.938 30.4375C203.062 29.0625 206.375 28.375 209.875 28.375H281.312V41.1875H209.875C208.125 41.1875 206.458 41.5208 204.875 42.1875C203.333 42.8542 201.979 43.7708 200.812 44.9375C199.646 46.1042 198.729 47.4792 198.062 49.0625C197.396 50.6042 197.062 52.25 197.062 54C197.062 55.75 197.396 57.4167 198.062 59C198.729 60.5417 199.646 61.8958 200.812 63.0625C201.979 64.2292 203.333 65.1458 204.875 65.8125C206.458 66.4792 208.125 66.8125 209.875 66.8125H262.125C265.667 66.8125 268.979 67.5 272.062 68.875C275.188 70.2083 277.896 72.0417 280.188 74.375C282.521 76.6667 284.354 79.375 285.688 82.5C287.021 85.5833 287.688 88.875 287.688 92.375Z" fill="#91D2D5"/>
<path d="M175.562 161H117.875C111.667 161 106.021 159.833 100.937 157.5C95.8542 155.167 91.5 151.979 87.875 147.937C84.2917 143.896 81.5208 139.146 79.5625 133.687C77.6042 128.229 76.625 122.396 76.625 116.187C76.625 110.021 77.6042 104.229 79.5625 98.8125C81.5208 93.3542 84.2917 88.6042 87.875 84.5625C91.5 80.4792 95.8542 77.2708 100.937 74.9375C106.021 72.5625 111.667 71.375 117.875 71.375H175.562V84.1875H117.875C113.458 84.1875 109.479 85.0417 105.937 86.75C102.437 88.4167 99.4583 90.7083 97 93.625C94.5833 96.5 92.7083 99.875 91.375 103.75C90.0833 107.625 89.4375 111.771 89.4375 116.187C89.4375 120.604 90.0833 124.771 91.375 128.687C92.7083 132.562 94.5833 135.958 97 138.875C99.4583 141.75 102.437 144.021 105.937 145.687C109.479 147.354 113.458 148.187 117.875 148.187H162.75V122.625H108.5V109.812H175.562V161Z" fill="#91D2D5"/>
<path d="M37.2109 65H15.5781C13.25 65 11.1328 64.5625 9.22656 63.6875C7.32031 62.8125 5.6875 61.6172 4.32812 60.1016C2.98437 58.5859 1.94531 56.8047 1.21094 54.7578C0.476562 52.7109 0.109375 50.5234 0.109375 48.1953C0.109375 45.8828 0.476562 43.7109 1.21094 41.6797C1.94531 39.6328 2.98437 37.8516 4.32812 36.3359C5.6875 34.8047 7.32031 33.6016 9.22656 32.7266C11.1328 31.8359 13.25 31.3906 15.5781 31.3906H37.2109V36.1953H15.5781C13.9219 36.1953 12.4297 36.5156 11.1016 37.1562C9.78906 37.7812 8.67188 38.6406 7.75 39.7344C6.84375 40.8125 6.14062 42.0781 5.64062 43.5312C5.15625 44.9844 4.91406 46.5391 4.91406 48.1953C4.91406 49.8516 5.15625 51.4141 5.64062 52.8828C6.14062 54.3359 6.84375 55.6094 7.75 56.7031C8.67187 57.7812 9.78906 58.6328 11.1016 59.2578C12.4297 59.8828 13.9219 60.1953 15.5781 60.1953H32.4062V50.6094H12.0625V45.8047H37.2109V65ZM79.1172 65H44.3594V31.3906H79.1172V36.1953H49.1641V60.1953H79.1172V65ZM75.0391 50.6094H51.5547V45.8047H75.0391V50.6094ZM89.8984 65H85.0938V31.3906H87.4844C89.0469 31.3906 90.7031 31.5938 92.4531 32C94.2188 32.4062 96.0156 32.9922 97.8438 33.7578C99.6719 34.5234 101.492 35.4531 103.305 36.5469C105.133 37.625 106.898 38.8516 108.602 40.2266C110.305 41.6016 111.906 43.1016 113.406 44.7266C114.906 46.3359 116.25 48.0547 117.438 49.8828V31.3906H122.242V65H117.438C117.438 62.5312 117.008 60.1562 116.148 57.875C115.289 55.5781 114.141 53.4141 112.703 51.3828C111.266 49.3516 109.609 47.4844 107.734 45.7812C105.859 44.0625 103.898 42.5547 101.852 41.2578C99.8203 39.9609 97.7734 38.8984 95.7109 38.0703C93.6484 37.2266 91.7109 36.6641 89.8984 36.3828V65ZM135.133 65H130.328V31.3906H135.133V65ZM179.219 31.3906L179.172 48.1953C179.172 49.7578 178.969 51.2578 178.562 52.6953C178.172 54.1172 177.609 55.4531 176.875 56.7031C176.156 57.9375 175.281 59.0703 174.25 60.1016C173.234 61.1172 172.102 61.9922 170.852 62.7266C169.617 63.4453 168.289 64.0078 166.867 64.4141C165.445 64.8047 163.961 65 162.414 65H158.875C157.328 65 155.836 64.8047 154.398 64.4141C152.977 64.0078 151.641 63.4375 150.391 62.7031C149.156 61.9688 148.031 61.0938 147.016 60.0781C146 59.0469 145.125 57.9141 144.391 56.6797C143.672 55.4297 143.109 54.0938 142.703 52.6719C142.312 51.2344 142.117 49.7422 142.117 48.1953V31.3906H146.922V48.1953C146.922 49.8516 147.234 51.4141 147.859 52.8828C148.484 54.3359 149.336 55.6094 150.414 56.7031C151.508 57.7813 152.781 58.6328 154.234 59.2578C155.688 59.8828 157.234 60.1953 158.875 60.1953H162.414C164.07 60.1953 165.625 59.8828 167.078 59.2578C168.531 58.6328 169.797 57.7813 170.875 56.7031C171.953 55.6094 172.805 54.3359 173.43 52.8828C174.055 51.4141 174.367 49.8516 174.367 48.1953V31.3906H179.172H179.219Z" fill="#91D2D5"/>
<path d="M221.234 161H216.43V151.391H189.617V146.609H216.43V132.195H199.203C197.562 132.195 196.016 132.516 194.562 133.156C193.109 133.781 191.844 134.641 190.766 135.734C189.688 136.812 188.828 138.078 188.188 139.531C187.562 140.984 187.25 142.539 187.25 144.195V161H182.445V144.195C182.445 142.648 182.641 141.164 183.031 139.742C183.438 138.305 184 136.969 184.719 135.734C185.453 134.484 186.328 133.352 187.344 132.336C188.375 131.305 189.508 130.422 190.742 129.688C191.992 128.953 193.328 128.391 194.75 128C196.172 127.594 197.656 127.391 199.203 127.391H221.234V161ZM268.086 161H261.594L251.516 151.391H236.797V146.656H256.086C257.086 146.656 258.023 146.469 258.898 146.094C259.773 145.703 260.531 145.18 261.172 144.523C261.828 143.867 262.344 143.102 262.719 142.227C263.094 141.336 263.281 140.391 263.281 139.391C263.281 138.391 263.094 137.453 262.719 136.578C262.344 135.703 261.828 134.945 261.172 134.305C260.531 133.648 259.773 133.133 258.898 132.758C258.023 132.383 257.086 132.195 256.086 132.195H234.102V161H229.297V127.391H256.086C257.742 127.391 259.297 127.711 260.75 128.352C262.203 128.977 263.469 129.836 264.547 130.93C265.641 132.008 266.5 133.273 267.125 134.727C267.766 136.18 268.086 137.734 268.086 139.391C268.086 140.891 267.828 142.312 267.312 143.656C266.797 144.984 266.086 146.18 265.18 147.242C264.273 148.289 263.203 149.164 261.969 149.867C260.75 150.555 259.43 151.016 258.008 151.25L268.086 161ZM312.453 161H307.648V151.391H280.836V146.609H307.648V132.195H290.422C288.781 132.195 287.234 132.516 285.781 133.156C284.328 133.781 283.062 134.641 281.984 135.734C280.906 136.812 280.047 138.078 279.406 139.531C278.781 140.984 278.469 142.539 278.469 144.195V161H273.664V144.195C273.664 142.648 273.859 141.164 274.25 139.742C274.656 138.305 275.219 136.969 275.938 135.734C276.672 134.484 277.547 133.352 278.562 132.336C279.594 131.305 280.727 130.422 281.961 129.688C283.211 128.953 284.547 128.391 285.969 128C287.391 127.594 288.875 127.391 290.422 127.391H312.453V161ZM355.695 161H334.062C331.734 161 329.617 160.562 327.711 159.688C325.805 158.812 324.172 157.617 322.812 156.102C321.469 154.586 320.43 152.805 319.695 150.758C318.961 148.711 318.594 146.523 318.594 144.195C318.594 141.883 318.961 139.711 319.695 137.68C320.43 135.633 321.469 133.852 322.812 132.336C324.172 130.805 325.805 129.602 327.711 128.727C329.617 127.836 331.734 127.391 334.062 127.391H355.695V132.195H334.062C332.406 132.195 330.914 132.516 329.586 133.156C328.273 133.781 327.156 134.641 326.234 135.734C325.328 136.812 324.625 138.078 324.125 139.531C323.641 140.984 323.398 142.539 323.398 144.195C323.398 145.852 323.641 147.414 324.125 148.883C324.625 150.336 325.328 151.609 326.234 152.703C327.156 153.781 328.273 154.633 329.586 155.258C330.914 155.883 332.406 156.195 334.062 156.195H350.891V146.609H330.547V141.805H355.695V161ZM397.602 161H362.844V127.391H397.602V132.195H367.648V156.195H397.602V161ZM393.523 146.609H370.039V141.805H393.523V146.609Z" fill="#91D2D5"/>
</svg>
