<svg width="160" height="54" viewBox="0 0 160 54" fill="none" xmlns="http://www.w3.org/2000/svg">
<path d="M115.757 26.0584C115.757 27.5174 115.489 28.8831 114.952 30.1555C114.415 31.4109 113.677 32.5137 112.738 33.4637C111.816 34.3968 110.725 35.1348 109.468 35.6777C108.226 36.2205 106.893 36.492 105.467 36.492H74.121V31.2752H105.467C106.189 31.2752 106.86 31.1395 107.48 30.868C108.101 30.5966 108.637 30.2234 109.09 29.7484C109.56 29.2733 109.929 28.722 110.197 28.0943C110.465 27.4496 110.6 26.771 110.6 26.0584C110.6 25.3459 110.465 24.6758 110.197 24.0481C109.929 23.4204 109.56 22.869 109.09 22.394C108.637 21.9189 108.101 21.5457 107.48 21.2743C106.86 21.0028 106.189 20.8671 105.467 20.8671H84.4356C83.0268 20.8671 81.6934 20.5957 80.4355 20.0528C79.1777 19.5099 78.0791 18.7719 77.1399 17.8388C76.2174 16.8888 75.4795 15.7776 74.926 14.5052C74.3893 13.2328 74.121 11.8756 74.121 10.4336C74.121 9.00848 74.3893 7.65975 74.926 6.38737C75.4795 5.11499 76.2174 4.01225 77.1399 3.07917C78.0791 2.12912 79.1777 1.38266 80.4355 0.839774C81.6934 0.279925 83.0268 0 84.4356 0H113.191V5.21678H84.4356C83.7312 5.21678 83.0603 5.3525 82.423 5.62394C81.8024 5.89538 81.2574 6.26861 80.7878 6.74364C80.3181 7.21866 79.9492 7.77851 79.6808 8.42319C79.4125 9.0509 79.2783 9.72102 79.2783 10.4336C79.2783 11.1461 79.4125 11.8247 79.6808 12.4694C79.9492 13.0971 80.3181 13.6484 80.7878 14.1235C81.2574 14.5985 81.8024 14.9717 82.423 15.2432C83.0603 15.5146 83.7312 15.6503 84.4356 15.6503H105.467C106.893 15.6503 108.226 15.9303 109.468 16.4901C110.725 17.033 111.816 17.7795 112.738 18.7295C113.677 19.6626 114.415 20.7653 114.952 22.0377C115.489 23.2931 115.757 24.6334 115.757 26.0584Z" fill="white"/>
<path d="M70.624 54H47.4034C44.9044 54 42.6319 53.525 40.5857 52.5749C38.5395 51.6249 36.7869 50.327 35.3277 48.6814C33.8854 47.0358 32.77 45.1018 31.9818 42.8794C31.1935 40.6569 30.7993 38.2818 30.7993 35.754C30.7993 33.2432 31.1935 30.885 31.9818 28.6795C32.77 26.4571 33.8854 24.5231 35.3277 22.8775C36.7869 21.2149 38.5395 19.9086 40.5857 18.9585C42.6319 17.9915 44.9044 17.508 47.4034 17.508H70.624V22.7248H47.4034C45.6256 22.7248 44.0239 23.0726 42.5983 23.7681C41.1895 24.4467 39.9903 25.3798 39.0008 26.5674C38.028 27.738 37.2733 29.1122 36.7366 30.6899C36.2166 32.2677 35.9567 33.9557 35.9567 35.754C35.9567 37.5523 36.2166 39.2488 36.7366 40.8435C37.2733 42.4213 38.028 43.804 39.0008 44.9915C39.9903 46.1621 41.1895 47.0867 42.5983 47.7653C44.0239 48.4439 45.6256 48.7832 47.4034 48.7832H65.4667V38.3751H43.6298V33.1583H70.624V54Z" fill="white"/>
<path d="M14.9343 14.9123H6.22654C5.28941 14.9123 4.43719 14.7342 3.66988 14.3779C2.90257 14.0217 2.24533 13.535 1.69815 12.9179C1.15726 12.3008 0.739008 11.5755 0.443405 10.7421C0.147802 9.90869 0 9.01803 0 8.0701C0 7.12853 0.147802 6.24423 0.443405 5.41718C0.739008 4.58377 1.15726 3.85851 1.69815 3.2414C2.24533 2.61793 2.90257 2.12806 3.66988 1.7718C4.43719 1.40917 5.28941 1.22785 6.22654 1.22785H14.9343V3.18414H6.22654C5.55986 3.18414 4.95922 3.31456 4.42462 3.5754C3.8963 3.82988 3.44661 4.17978 3.07553 4.62512C2.71075 5.06409 2.42772 5.57941 2.22646 6.17107C2.03149 6.76272 1.934 7.39574 1.934 8.0701C1.934 8.74446 2.03149 9.38066 2.22646 9.97868C2.42772 10.5703 2.71075 11.0888 3.07553 11.5342C3.44661 11.9731 3.8963 12.3199 4.42462 12.5743C4.95922 12.8288 5.55986 12.9561 6.22654 12.9561H13.0003V9.05302H4.81142V7.09672H14.9343V14.9123Z" fill="white"/>
<path d="M31.8025 14.9123H17.8117V1.22785H31.8025V3.18414H19.7457V12.9561H31.8025V14.9123ZM30.161 9.05302H20.708V7.09672H30.161V9.05302Z" fill="white"/>
<path d="M36.1422 14.9123H34.2082V1.22785H35.1705C35.7994 1.22785 36.4661 1.31056 37.1705 1.47597C37.8812 1.64138 38.6045 1.87995 39.3404 2.19168C40.0763 2.50342 40.809 2.88195 41.5386 3.32729C42.2744 3.76626 42.9851 4.26567 43.6707 4.82552C44.3562 5.38537 45.0009 5.99611 45.6047 6.65775C46.2085 7.31303 46.7493 8.01284 47.2273 8.75719V1.22785H49.1613V14.9123H47.2273C47.2273 13.9072 47.0544 12.9402 46.7085 12.0113C46.3625 11.0761 45.9003 10.195 45.3216 9.36793C44.743 8.54088 44.0763 7.78063 43.3216 7.08718C42.5669 6.38737 41.7776 5.77344 40.9536 5.24541C40.136 4.71737 39.3121 4.28475 38.4819 3.94757C37.6517 3.60403 36.8718 3.375 36.1422 3.26049V14.9123Z" fill="white"/>
<path d="M54.3501 14.9123H52.4161V1.22785H54.3501V14.9123Z" fill="white"/>
<path d="M72.0958 1.22785L72.0769 8.0701C72.0769 8.70629 71.9951 9.31704 71.8316 9.90233C71.6744 10.4813 71.4479 11.0252 71.1523 11.5342C70.863 12.0368 70.5108 12.498 70.0957 12.9179C69.6869 13.3314 69.2309 13.6877 68.7278 13.9867C68.2309 14.2793 67.6963 14.5084 67.124 14.6738C66.5516 14.8328 65.9541 14.9123 65.3315 14.9123H63.9069C63.2843 14.9123 62.6836 14.8328 62.105 14.6738C61.5327 14.5084 60.9949 14.2762 60.4918 13.9771C59.9949 13.6781 59.5421 13.3219 59.1332 12.9083C58.7244 12.4885 58.3722 12.0272 58.0766 11.5246C57.7873 11.0157 57.5609 10.4717 57.3974 9.89279C57.2401 9.30749 57.1615 8.69993 57.1615 8.0701V1.22785H59.0955V8.0701C59.0955 8.74446 59.2213 9.38066 59.4729 9.97868C59.7244 10.5703 60.0672 11.0888 60.5012 11.5342C60.9414 11.9731 61.454 12.3199 62.039 12.5743C62.6239 12.8288 63.2465 12.9561 63.9069 12.9561H65.3315C65.9982 12.9561 66.624 12.8288 67.2089 12.5743C67.7938 12.3199 68.3032 11.9731 68.7372 11.5342C69.1712 11.0888 69.5139 10.5703 69.7655 9.97868C70.0171 9.38066 70.1429 8.74446 70.1429 8.0701V1.22785H72.0958Z" fill="white"/>
<path d="M89.008 54H87.074V50.0874H76.2814V48.1407H87.074V42.2718H80.1399C79.4795 42.2718 78.8569 42.4022 78.272 42.6631C77.6871 42.9175 77.1776 43.2674 76.7436 43.7128C76.3097 44.1517 75.9638 44.6671 75.7059 45.2587C75.4543 45.8504 75.3285 46.4834 75.3285 47.1578V54H73.3945V47.1578C73.3945 46.5279 73.4731 45.9235 73.6304 45.3446C73.7939 44.7593 74.0203 44.2154 74.3096 43.7128C74.6052 43.2038 74.9574 42.7426 75.3663 42.3291C75.7814 41.9092 76.2373 41.5497 76.7342 41.2507C77.2374 40.9517 77.7751 40.7227 78.3475 40.5636C78.9198 40.3982 79.5173 40.3155 80.1399 40.3155H89.008V54Z" fill="white"/>
<path d="M107.867 54H105.254L101.197 50.0874H95.2723V48.1598H103.037C103.439 48.1598 103.817 48.0834 104.169 47.9307C104.521 47.7717 104.826 47.5586 105.084 47.2914C105.348 47.0242 105.556 46.7124 105.706 46.3561C105.857 45.9935 105.933 45.6086 105.933 45.2015C105.933 44.7943 105.857 44.4126 105.706 44.0563C105.556 43.7 105.348 43.3915 105.084 43.1307C104.826 42.8635 104.521 42.6535 104.169 42.5008C103.817 42.3481 103.439 42.2718 103.037 42.2718H94.1874V54H92.2534V40.3155H103.037C103.703 40.3155 104.329 40.4459 104.914 40.7068C105.499 40.9612 106.008 41.3111 106.442 41.7565C106.883 42.1955 107.229 42.7108 107.48 43.3024C107.738 43.8941 107.867 44.5271 107.867 45.2015C107.867 45.8122 107.763 46.3911 107.556 46.9383C107.348 47.479 107.062 47.9657 106.697 48.3983C106.332 48.8246 105.901 49.1808 105.405 49.4671C104.914 49.7471 104.383 49.9347 103.81 50.0302L107.867 54Z" fill="white"/>
<path d="M125.726 54H123.792V50.0874H112.999V48.1407H123.792V42.2718H116.858C116.197 42.2718 115.575 42.4022 114.99 42.6631C114.405 42.9175 113.895 43.2674 113.461 43.7128C113.027 44.1517 112.681 44.6671 112.424 45.2587C112.172 45.8504 112.046 46.4834 112.046 47.1578V54H110.112V47.1578C110.112 46.5279 110.191 45.9235 110.348 45.3446C110.512 44.7593 110.738 44.2154 111.027 43.7128C111.323 43.2038 111.675 42.7426 112.084 42.3291C112.499 41.9092 112.955 41.5497 113.452 41.2507C113.955 40.9517 114.493 40.7227 115.065 40.5636C115.637 40.3982 116.235 40.3155 116.858 40.3155H125.726V54Z" fill="white"/>
<path d="M143.132 54H134.424C133.487 54 132.635 53.8219 131.867 53.4656C131.1 53.1093 130.443 52.6226 129.896 52.0055C129.355 51.3884 128.936 50.6632 128.641 49.8298C128.345 48.9963 128.197 48.1057 128.197 47.1578C128.197 46.2162 128.345 45.3319 128.641 44.5048C128.936 43.6714 129.355 42.9462 129.896 42.3291C130.443 41.7056 131.1 41.2157 131.867 40.8594C132.635 40.4968 133.487 40.3155 134.424 40.3155H143.132V42.2718H134.424C133.757 42.2718 133.157 42.4022 132.622 42.6631C132.094 42.9175 131.644 43.2674 131.273 43.7128C130.908 44.1517 130.625 44.6671 130.424 45.2587C130.229 45.8504 130.131 46.4834 130.131 47.1578C130.131 47.8321 130.229 48.4683 130.424 49.0663C130.625 49.658 130.908 50.1765 131.273 50.6218C131.644 51.0608 132.094 51.4075 132.622 51.662C133.157 51.9165 133.757 52.0437 134.424 52.0437H141.198V48.1407H133.009V46.1844H143.132V54Z" fill="white"/>
<path d="M160 54H146.009V40.3155H160V42.2718H147.943V52.0437H160V54ZM158.358 48.1407H148.905V46.1844H158.358V48.1407Z" fill="white"/>
</svg>
